<svg xmlns="http://www.w3.org/2000/svg" viewBox="0 0 1500 900" role="img" aria-labelledby="title desc">
  <title id="title">Chummer6 program map</title>
  <desc id="desc">A map of the main parts in the Chummer6 program and how they relate to the visitor-center guide.</desc>
  <rect width="1500" height="900" fill="#f8fafc"/>
  <g font-family="Segoe UI, Arial, sans-serif">
    <text x="80" y="92" fill="#0f172a" font-size="46" font-weight="800">Program map</text>
    <text x="80" y="136" fill="#475569" font-size="24">The moving parts, at a glance.</text>
  </g>
  <g stroke="#94a3b8" stroke-width="5" fill="none">
    <path d="M370 240h180"/>
    <path d="M370 430h180"/>
    <path d="M370 620h180"/>
    <path d="M760 240h180"/>
    <path d="M760 620h180"/>
    <path d="M655 136v70"/>
  </g>
  <g font-family="Segoe UI, Arial, sans-serif" font-size="22" font-weight="700">
    <rect x="520" y="60" width="270" height="96" rx="24" fill="#111827"/>
    <text x="594" y="114" fill="#f8fafc">chummer6-design</text>
    <text x="584" y="142" fill="#cbd5e1" font-size="18" font-weight="500">the blueprint room</text>

    <rect x="120" y="190" width="250" height="104" rx="24" fill="#0f766e"/>
    <text x="212" y="245" fill="#f0fdfa">core</text>
    <text x="168" y="275" fill="#ccfbf1" font-size="18" font-weight="500">deterministic engine truth</text>

    <rect x="120" y="380" width="250" height="104" rx="24" fill="#1d4ed8"/>
    <text x="192" y="435" fill="#eff6ff">presentation</text>
    <text x="172" y="465" fill="#dbeafe" font-size="18" font-weight="500">workbench and big-screen UX</text>

    <rect x="120" y="570" width="250" height="104" rx="24" fill="#7c3aed"/>
    <text x="200" y="625" fill="#f5f3ff">play</text>
    <text x="156" y="655" fill="#ede9fe" font-size="18" font-weight="500">table shell and local-first sync</text>

    <rect x="550" y="190" width="250" height="104" rx="24" fill="#be123c"/>
    <text x="620" y="245" fill="#fff1f2">run-services</text>
    <text x="595" y="275" fill="#ffe4e6" font-size="18" font-weight="500">hosted APIs and orchestration</text>

    <rect x="550" y="380" width="250" height="104" rx="24" fill="#0f766e"/>
    <text x="636" y="435" fill="#f0fdfa">ui-kit</text>
    <text x="603" y="465" fill="#ccfbf1" font-size="18" font-weight="500">shared visual primitives</text>

    <rect x="550" y="570" width="250" height="104" rx="24" fill="#7c2d12"/>
    <text x="592" y="625" fill="#ffedd5">hub-registry</text>
    <text x="572" y="655" fill="#fed7aa" font-size="18" font-weight="500">artifact and publication metadata</text>

    <rect x="940" y="190" width="250" height="104" rx="24" fill="#334155"/>
    <text x="978" y="245" fill="#f8fafc">media-factory</text>
    <text x="1002" y="275" fill="#cbd5e1" font-size="18" font-weight="500">render-only jobs</text>

    <rect x="940" y="510" width="250" height="104" rx="24" fill="#134e4a"/>
    <text x="1018" y="565" fill="#ecfeff">Chummer6</text>
    <text x="988" y="595" fill="#cffafe" font-size="18" font-weight="500">visitor center for humans</text>
  </g>
</svg>
