<svg xmlns="http://www.w3.org/2000/svg" viewBox="0 0 1400 420" role="img" aria-labelledby="title desc">
  <title id="title">Chummer6 hero banner</title>
  <desc id="desc">A banner showing legacy Chummer, transition arrows, and the new Chummer6 multi-repo program.</desc>
  <defs>
    <linearGradient id="bg" x1="0" x2="1" y1="0" y2="1">
      <stop offset="0%" stop-color="#111827"/>
      <stop offset="50%" stop-color="#13293d"/>
      <stop offset="100%" stop-color="#0f5132"/>
    </linearGradient>
    <linearGradient id="panel" x1="0" x2="1">
      <stop offset="0%" stop-color="#fff7ed" stop-opacity="0.95"/>
      <stop offset="100%" stop-color="#ecfeff" stop-opacity="0.95"/>
    </linearGradient>
  </defs>
  <rect width="1400" height="420" fill="url(#bg)"/>
  <circle cx="160" cy="160" r="120" fill="#1f2937" opacity="0.45"/>
  <circle cx="1180" cy="120" r="160" fill="#0b7285" opacity="0.18"/>
  <g fill="#f59e0b" opacity="0.9">
    <path d="M355 210h150l-28-30h53l42 46-42 46h-53l28-30H355z"/>
  </g>
  <g fill="url(#panel)">
    <rect x="548" y="62" width="784" height="296" rx="28"/>
  </g>
  <g font-family="Segoe UI, Arial, sans-serif">
    <text x="76" y="120" fill="#f8fafc" font-size="32" font-weight="700">Legacy Chummer</text>
    <text x="76" y="162" fill="#cbd5e1" font-size="20">Same shadows.</text>
    <text x="76" y="192" fill="#cbd5e1" font-size="20">Familiar chrome.</text>
    <text x="76" y="238" fill="#fbbf24" font-size="22" font-weight="700">Transition</text>
    <text x="76" y="268" fill="#e2e8f0" font-size="18">from one giant toolbox</text>
    <text x="76" y="294" fill="#e2e8f0" font-size="18">to a clean split program</text>

    <text x="590" y="118" fill="#0f172a" font-size="48" font-weight="800">Chummer6</text>
    <text x="590" y="158" fill="#0f172a" font-size="24" font-weight="600">Same shadows, bigger future.</text>
    <text x="590" y="198" fill="#334155" font-size="20">Visitor center for the next Chummer:</text>
    <text x="590" y="228" fill="#334155" font-size="20">what it is, what is happening now, and what comes later.</text>
  </g>
  <g font-family="Segoe UI, Arial, sans-serif" font-size="18" font-weight="700">
    <rect x="592" y="268" width="152" height="48" rx="16" fill="#0f766e"/>
    <text x="628" y="298" fill="#f0fdfa">core</text>
    <rect x="760" y="268" width="152" height="48" rx="16" fill="#1d4ed8"/>
    <text x="803" y="298" fill="#eff6ff">play</text>
    <rect x="928" y="268" width="152" height="48" rx="16" fill="#7c3aed"/>
    <text x="970" y="298" fill="#f5f3ff">hub</text>
    <rect x="1096" y="268" width="200" height="48" rx="16" fill="#be123c"/>
    <text x="1142" y="298" fill="#fff1f2">registry + media</text>
  </g>
</svg>
