<svg xmlns="http://www.w3.org/2000/svg" viewBox="0 0 1200 760" role="img" aria-labelledby="title desc">
  <title id="title">Chummer6 program map</title>
  <desc id="desc">A simple map of Chummer6 repos and their relationships.</desc>
  <rect width="1200" height="760" fill="#f8fafc"/>
  <g font-family="Segoe UI, Arial, sans-serif">
    <text x="60" y="70" fill="#0f172a" font-size="34" font-weight="800">Program map</text>
    <text x="60" y="104" fill="#475569" font-size="18">The parts, at a glance.</text>
  </g>
  <g stroke="#94a3b8" stroke-width="4" fill="none">
    <path d="M355 210h145"/>
    <path d="M355 370h145"/>
    <path d="M355 530h145"/>
    <path d="M700 210h145"/>
    <path d="M700 370h145"/>
    <path d="M700 530h145"/>
    <path d="M620 110v80"/>
  </g>
  <g font-family="Segoe UI, Arial, sans-serif" font-size="18" font-weight="700">
    <rect x="500" y="50" width="240" height="90" rx="20" fill="#111827"/>
    <text x="570" y="92" fill="#f8fafc">chummer6-design</text>
    <text x="570" y="118" fill="#cbd5e1" font-size="15" font-weight="500">canonical design</text>

    <rect x="130" y="165" width="225" height="90" rx="20" fill="#0f766e"/>
    <text x="208" y="206" fill="#f0fdfa">core</text>
    <text x="168" y="232" fill="#ccfbf1" font-size="15" font-weight="500">deterministic engine truth</text>

    <rect x="130" y="325" width="225" height="90" rx="20" fill="#1d4ed8"/>
    <text x="196" y="366" fill="#eff6ff">ui</text>
    <text x="164" y="392" fill="#dbeafe" font-size="15" font-weight="500">workbench + desktop/browser</text>

    <rect x="130" y="485" width="225" height="90" rx="20" fill="#7c3aed"/>
    <text x="188" y="526" fill="#f5f3ff">mobile</text>
    <text x="165" y="552" fill="#ede9fe" font-size="15" font-weight="500">play shell + local-first sync</text>

    <rect x="500" y="165" width="225" height="90" rx="20" fill="#be123c"/>
    <text x="583" y="206" fill="#fff1f2">hub</text>
    <text x="541" y="232" fill="#ffe4e6" font-size="15" font-weight="500">hosted APIs + orchestration</text>

    <rect x="500" y="325" width="225" height="90" rx="20" fill="#0f766e"/>
    <text x="573" y="366" fill="#f0fdfa">ui-kit</text>
    <text x="549" y="392" fill="#ccfbf1" font-size="15" font-weight="500">shared visual primitives</text>

    <rect x="500" y="485" width="225" height="90" rx="20" fill="#7c2d12"/>
    <text x="545" y="526" fill="#ffedd5">hub-registry</text>
    <text x="522" y="552" fill="#fed7aa" font-size="15" font-weight="500">artifacts + publication metadata</text>

    <rect x="845" y="165" width="225" height="90" rx="20" fill="#334155"/>
    <text x="892" y="206" fill="#f8fafc">media-factory</text>
    <text x="899" y="232" fill="#cbd5e1" font-size="15" font-weight="500">render-only asset jobs</text>

    <rect x="845" y="325" width="225" height="90" rx="20" fill="#ca8a04"/>
    <text x="913" y="366" fill="#fefce8">fleet</text>
    <text x="883" y="392" fill="#fef3c7" font-size="15" font-weight="500">mission control + live truth</text>

    <rect x="845" y="485" width="225" height="90" rx="20" fill="#134e4a"/>
    <text x="915" y="526" fill="#ecfeff">Chummer6</text>
    <text x="875" y="552" fill="#cffafe" font-size="15" font-weight="500">visitor center / human guide</text>
  </g>
</svg>
