<svg xmlns="http://www.w3.org/2000/svg" viewBox="0 0 1600 900" role="img" aria-labelledby="title desc">
  <title id="title">GHOSTWIRE</title>
  <desc id="desc">Replay a run like a forensic sim.</desc>
  <defs>
    <linearGradient id="bg" x1="0" y1="0" x2="1" y2="1">
      <stop offset="0%" stop-color="#09090b"/>
      <stop offset="45%" stop-color="#111827"/>
      <stop offset="100%" stop-color="#334155"/>
    </linearGradient>
    <radialGradient id="halo" cx="50%" cy="45%" r="65%">
      <stop offset="0%" stop-color="#94a3b8" stop-opacity="0.65"/>
      <stop offset="100%" stop-color="#94a3b8" stop-opacity="0"/>
    </radialGradient>
  </defs>
  <rect width="1600" height="900" fill="url(#bg)"/>
  <circle cx="340" cy="390" r="260" fill="url(#halo)"/>
  <circle cx="1220" cy="190" r="220" fill="url(#halo)" opacity="0.55"/>
  <rect x="560" y="120" width="900" height="660" rx="40" fill="#f8fafc" opacity="0.96"/>
  <g font-family="Segoe UI, Arial, sans-serif">
    <text x="120" y="190" fill="#f8fafc" font-size="52" font-weight="800">GHOSTWIRE</text>
    <text x="120" y="246" fill="#cbd5e1" font-size="28">Replay a run like a forensic sim.</text>
    <text x="120" y="336" fill="#e2e8f0" font-size="22">Horizon only.</text>
    <text x="120" y="370" fill="#e2e8f0" font-size="22">Future idea, not active build work.</text>

    <text x="620" y="225" fill="#0f172a" font-size="64" font-weight="800">GHOSTWIRE</text>
    <text x="620" y="292" fill="#334155" font-size="28">Replay a run like a forensic sim.</text>
    <text x="620" y="392" fill="#475569" font-size="24">Local art, generated by the guide pipeline.</text>
    <text x="620" y="430" fill="#475569" font-size="24">Optional provider rendering when configured safely.</text>
  </g>
  <g fill="#0f172a" opacity="0.92">
    <rect x="620" y="520" width="190" height="76" rx="22"/>
    <rect x="840" y="520" width="190" height="76" rx="22"/>
    <rect x="1060" y="520" width="190" height="76" rx="22"/>
    <rect x="1280" y="520" width="130" height="76" rx="22"/>
  </g>
  <g font-family="Segoe UI, Arial, sans-serif" font-size="24" font-weight="700" fill="#f8fafc">
    <text x="674" y="566">core</text>
    <text x="900" y="566">play</text>
    <text x="1116" y="566">hub</text>
    <text x="1300" y="566">media</text>
  </g>
</svg>
